<?xml version="1.0" encoding="UTF-8"?>
<svg version="1.1" xmlns="http://www.w3.org/2000/svg" width="48" height="48">
<path d="M0 0 C15.84 0 31.68 0 48 0 C48 15.84 48 31.68 48 48 C32.16 48 16.32 48 0 48 C0 32.16 0 16.32 0 0 Z " fill="#FDFEFE" transform="translate(0,0)"/>
<path d="M0 0 C4.40617393 2.5854409 7.04183914 6.44870702 9.328125 10.921875 C10.3776673 16.86928137 9.93183482 22.10132748 7.140625 27.484375 C3.45301471 31.78658701 -0.66485803 35.5528629 -6.40625 36.48046875 C-12.97023168 36.65815615 -17.07205328 35.35378497 -22.109375 31.109375 C-26.48542466 26.61816614 -27.85074692 22.40008089 -28.546875 16.234375 C-28.41476426 11.30853186 -26.15614343 7.85540176 -23.109375 4.109375 C-20.546875 1.734375 -20.546875 1.734375 -18.109375 0.109375 C-17.51125 -0.303125 -16.913125 -0.715625 -16.296875 -1.140625 C-10.81230484 -3.02104906 -5.24313575 -2.18808027 0 0 Z " fill="#F5F7FD" transform="translate(33.109375,6.890625)"/>
<path d="M0 0 C0.79019531 0.45503906 1.58039062 0.91007813 2.39453125 1.37890625 C2.98621094 1.72824219 3.57789062 2.07757813 4.1875 2.4375 C5.70323477 15.52334352 5.70323477 15.52334352 2.13671875 20.02734375 C-4.14296768 24.57662769 -4.14296768 24.57662769 -8.34375 24.2265625 C-12.98546592 22.74297608 -16.6540634 21.28312782 -19.8125 17.4375 C-21.20182121 12.17208937 -21.24348687 7.6960859 -19.8125 2.4375 C-13.66930422 -4.46496716 -7.55128482 -4.395524 0 0 Z " fill="#9DB1F1" transform="translate(31.8125,13.5625)"/>
<path d="M0 0 C7.61413043 2.97944234 7.61413043 2.97944234 9.875 6.125 C10.4728613 10.18834053 10.28458183 14.04868564 9.875 18.125 C8.885 18.455 7.895 18.785 6.875 19.125 C6.875 14.505 6.875 9.885 6.875 5.125 C5.555 5.125 4.235 5.125 2.875 5.125 C2.875 6.445 2.875 7.765 2.875 9.125 C1.225 9.125 -0.425 9.125 -2.125 9.125 C-2.125 9.785 -2.125 10.445 -2.125 11.125 C-3.445 11.125 -4.765 11.125 -6.125 11.125 C-6.125 14.425 -6.125 17.725 -6.125 21.125 C-11 19.25 -11 19.25 -12.125 18.125 C-12.19758946 15.93860547 -12.20873783 13.74999611 -12.1875 11.5625 C-12.17847656 10.36496094 -12.16945313 9.16742188 -12.16015625 7.93359375 C-12.14855469 7.00675781 -12.13695312 6.07992188 -12.125 5.125 C-4.42020295 0.17680812 -4.42020295 0.17680812 0 0 Z " fill="#F0F6FD" transform="translate(25.125,11.875)"/>
<path d="M0 0 C4.40617393 2.5854409 7.04183914 6.44870702 9.328125 10.921875 C10.3776673 16.86928137 9.93183482 22.10132748 7.140625 27.484375 C3.45301471 31.78658701 -0.66485803 35.5528629 -6.40625 36.48046875 C-12.97023168 36.65815615 -17.07205328 35.35378497 -22.109375 31.109375 C-26.48542466 26.61816614 -27.85074692 22.40008089 -28.546875 16.234375 C-28.41476426 11.30853186 -26.15614343 7.85540176 -23.109375 4.109375 C-20.546875 1.734375 -20.546875 1.734375 -18.109375 0.109375 C-17.51125 -0.303125 -16.913125 -0.715625 -16.296875 -1.140625 C-10.81230484 -3.02104906 -5.24313575 -2.18808027 0 0 Z M-23.484375 6.671875 C-26.57969412 11.31485369 -26.59543258 15.70873522 -26.109375 21.109375 C-24.34709248 26.98365005 -22.01223567 29.70739004 -17.109375 33.109375 C-12.31704886 34.63863354 -6.89550826 35.11064164 -2.109375 33.390625 C2.22205405 31.07555085 5.98717339 28.03801344 7.47265625 23.22265625 C8.49282481 18.06460774 8.73806935 13.05709981 6.265625 8.296875 C3.09458091 4.04100004 -0.09263868 1.78162044 -5.109375 0.109375 C-12.96896133 -0.81976214 -17.99449225 0.74858045 -23.484375 6.671875 Z " fill="#99ADF4" transform="translate(33.109375,6.890625)"/>
<path d="M0 0 C1.32 0 2.64 0 4 0 C4 4.62 4 9.24 4 14 C2.68 14.33 1.36 14.66 0 15 C0 10.05 0 5.1 0 0 Z " fill="#878CE9" transform="translate(28,17)"/>
<path d="M0 0 C0.99 0 1.98 0 3 0 C3 4.29 3 8.58 3 13 C2.01 13.33 1.02 13.66 0 14 C0 9.38 0 4.76 0 0 Z " fill="#727CE6" transform="translate(24,21)"/>
<path d="M0 0 C1.32 0 2.64 0 4 0 C4 3.3 4 6.6 4 10 C2.68 9.67 1.36 9.34 0 9 C0 6.03 0 3.06 0 0 Z " fill="#84A3EF" transform="translate(19,24)"/>
<path d="M0 0 C0.721875 0.598125 1.44375 1.19625 2.1875 1.8125 C7.13153742 5.17636081 13.23340359 5.87063691 19 7 C19 7.33 19 7.66 19 8 C12.39230263 8.60931636 8.05632221 8.11218369 2.49609375 4.38671875 C1 3 1 3 0 0 Z " fill="#A3A9F3" transform="translate(10,35)"/>
</svg>
